HIERARCHY
ROOT Hips
{
 OFFSET 0.000000 0.000000 0.000000
 CHANNELS 6 Xposition Yposition Zposition Yrotation Xrotation Zrotation
 JOINT Chest
 {
  OFFSET 0.000000 9.588913 -0.003946
  CHANNELS 3 Yrotation Xrotation Zrotation
  JOINT Chest2
  {
   OFFSET 0.000000 9.541882 0.008053
   CHANNELS 3 Yrotation Xrotation Zrotation
   JOINT Chest3
   {
    OFFSET 0.000000 9.501360 0.000000
    CHANNELS 3 Yrotation Xrotation Zrotation
    JOINT Chest4
    {
     OFFSET 0.000000 9.491660 0.000000
     CHANNELS 3 Yrotation Xrotation Zrotation
     JOINT Neck
     {
      OFFSET 0.000000 14.331917 0.000000
      CHANNELS 3 Yrotation Xrotation Zrotation
      JOINT Head
      {
       OFFSET 0.000000 8.884799 0.017034
       CHANNELS 3 Yrotation Xrotation Zrotation
       End Site
       {
        OFFSET 0.000000 16.896195 0.008993
       }
      }
     }
     JOINT RightCollar
     {
      OFFSET -2.923010 9.499495 0.000000
      CHANNELS 3 Yrotation Xrotation Zrotation
      JOINT RightShoulder
      {
       OFFSET -13.795216 0.000000 0.000000
       CHANNELS 3 Yrotation Xrotation Zrotation
       JOINT RightElbow
       {
        OFFSET -30.272209 0.000000 0.000000
        CHANNELS 3 Yrotation Xrotation Zrotation
        JOINT RightWrist
        {
         OFFSET -24.478199 0.000000 0.000000
         CHANNELS 3 Yrotation Xrotation Zrotation
         End Site
         {
          OFFSET -18.090752 0.000000 0.000000
         }
        }
       }
      }
     }
     JOINT LeftCollar
     {
      OFFSET 2.923010 9.499495 0.000000
      CHANNELS 3 Yrotation Xrotation Zrotation
      JOINT LeftShoulder
      {
       OFFSET 13.795216 0.000000 0.000000
       CHANNELS 3 Yrotation Xrotation Zrotation
       JOINT LeftElbow
       {
        OFFSET 30.272209 0.000000 0.000000
        CHANNELS 3 Yrotation Xrotation Zrotation
        JOINT LeftWrist
        {
         OFFSET 24.478199 0.000000 0.000000
         CHANNELS 3 Yrotation Xrotation Zrotation
         End Site
         {
          OFFSET 18.090752 0.000000 0.000000
         }
        }
       }
      }
     }
    }
   }
  }
 }
 JOINT RightHip
 {
  OFFSET -7.826875 0.019532 0.001973
  CHANNELS 3 Yrotation Xrotation Zrotation
  JOINT RightKnee
  {
   OFFSET 0.000000 -40.546152 -0.001885
   CHANNELS 3 Yrotation Xrotation Zrotation
   JOINT RightAnkle
   {
    OFFSET 0.000000 -39.417092 -0.003189
    CHANNELS 3 Yrotation Xrotation Zrotation
    JOINT RightToe
    {
     OFFSET 0.000000 -7.579396 17.243563
     CHANNELS 3 Yrotation Xrotation Zrotation
     End Site
     {
      OFFSET 0.000000 -1.500329 6.694466
     }
    }
   }
  }
 }
 JOINT LeftHip
 {
  OFFSET 7.826875 0.019532 0.001973
  CHANNELS 3 Yrotation Xrotation Zrotation
  JOINT LeftKnee
  {
   OFFSET 0.000000 -40.546152 -0.001885
   CHANNELS 3 Yrotation Xrotation Zrotation
   JOINT LeftAnkle
   {
    OFFSET 0.000000 -39.417092 -0.003189
    CHANNELS 3 Yrotation Xrotation Zrotation
    JOINT LeftToe
    {
     OFFSET 0.000000 -7.579396 17.243563
     CHANNELS 3 Yrotation Xrotation Zrotation
     End Site
     {
      OFFSET 0.000000 -1.500329 6.694466
     }
    }
   }
  }
 }
}
MOTION
Frames: 5
Frame Time: 0.008333
0.000000 87.345680 0.000000 0.000000 -5.767889 0.000000 0.000000 11.653876 0.000000 0.000000 -5.885988 0.000000 0.000000 -0.000000 0.000000 0.000000 -0.000000 0.000000 0.000000 12.528808 0.000000 0.000000 0.711711 0.000000 0.000000 -0.000000 0.000000 0.000000 -0.000000 0.000000 2.309063 -0.000000 0.000000 -2.309063 -0.000000 -0.000000 0.000000 -0.000000 0.000000 0.000000 0.000000 0.000000 -2.309063 0.000000 0.000000 2.309063 -0.000000 0.000000 0.000000 8.520374 0.000000 0.000000 1.905768 0.000000 -0.000000 -4.658254 0.000000 0.000000 -0.000000 0.000000 0.000000 8.520374 0.000000 0.000000 1.905768 0.000000 -0.000000 -4.658254 0.000000 0.000000 -0.000000 0.000000
-4.343385 50.409099 -15.143379 10.306734 -35.167424 -6.848989 9.506749 14.772871 4.931813 5.198481 8.596067 2.234599 6.569426 10.709993 2.924334 5.198481 8.596068 2.234599 4.899332 19.213974 -2.964723 5.977202 -5.184404 -4.332318 8.414435 2.063324 -9.653242 -18.917691 11.697434 80.467916 79.200920 3.992037 37.366349 11.538377 -7.542052 -7.947041 16.994806 -0.444486 -1.892351 -5.638626 -6.825540 -82.109077 -69.493053 9.931975 -51.203647 0.196916 14.495865 31.273398 -17.560342 -41.019546 29.264834 -129.578239 68.534856 -141.326634 -15.399540 -22.498462 10.179278 -0.263195 0.476729 -0.119268 16.571517 -61.337747 40.231014 -171.598440 64.604466 -147.303414 -7.509926 -25.565109 -2.047715 0.025242 -0.420120 0.010322
-4.344385 50.408462 -15.142447 10.298756 -35.176752 -6.841139 9.509548 14.773178 4.931852 5.200679 8.594389 2.236649 6.572211 10.707849 2.926926 5.200679 8.594389 2.236649 4.899553 19.215418 -2.957298 5.975587 -5.183137 -4.324247 8.407763 2.065818 -9.643119 -18.914812 11.687163 80.453167 79.167634 3.988527 37.372748 11.569874 -7.552713 -7.946174 16.986873 -0.440973 -1.888694 -5.654714 -6.827051 -82.114862 -69.471159 9.936131 -51.180807 0.188506 14.493458 31.268972 -17.552645 -41.014689 29.261299 -129.564533 68.528680 -141.312899 -15.422762 -22.490232 10.196629 -0.277079 0.474298 -0.127332 16.579442 -61.331121 40.232313 -171.581240 64.595804 -147.281312 -7.503399 -25.564695 -2.050903 0.028932 -0.425014 0.010841
-4.345531 50.407585 -15.141613 10.291405 -35.185391 -6.832395 9.511095 14.773469 4.930491 5.203085 8.592535 2.238526 6.575250 10.705488 2.929304 5.203085 8.592535 2.238526 4.899602 19.216359 -2.949412 5.973659 -5.182476 -4.315625 8.401227 2.066875 -9.632591 -18.914779 11.676177 80.438400 79.127790 3.986077 37.379982 11.602932 -7.564086 -7.948103 16.973932 -0.439656 -1.881851 -5.662630 -6.824542 -82.123429 -69.449513 9.941376 -51.160001 0.177155 14.488725 31.265541 -17.542399 -41.010811 29.256034 -129.551940 68.522557 -141.298342 -15.444096 -22.485424 10.208402 -0.281919 0.474300 -0.130624 16.587053 -61.325948 40.232844 -171.574301 64.588246 -147.270419 -7.504035 -25.562360 -2.044577 0.024077 -0.431392 0.005621
-4.348044 50.406529 -15.140967 10.285144 -35.191549 -6.830645 9.513027 14.770704 4.933648 5.205506 8.590499 2.240528 6.578309 10.702897 2.931836 5.205506 8.590499 2.240528 4.900341 19.217950 -2.940635 5.972280 -5.181078 -4.306205 8.395158 2.067682 -9.622385 -18.912360 11.664620 80.426378 79.082092 3.983780 37.380597 11.637470 -7.572895 -7.949431 16.958302 -0.438205 -1.872333 -5.659247 -6.822298 -82.134415 -69.428072 9.947029 -51.143636 0.165746 14.487335 31.261097 -17.536804 -41.005663 29.259394 -129.532180 68.517784 -141.276111 -15.454616 -22.484702 10.209914 -0.271048 0.477362 -0.127243 16.582051 -61.323657 40.246826 -171.572647 64.586927 -147.268187 -7.503006 -25.560850 -2.038959 0.016064 -0.432641 0.000320
